<svg width="475" height="71" viewBox="0 0 475 71" fill="none" xmlns="http://www.w3.org/2000/svg">
<path d="M2.03677 55.5995C3.53753 56.8859 5.25268 58.0651 7.50383 59.1371C9.64779 60.209 12.0061 60.9594 14.5789 61.6026C17.5804 62.2458 20.2604 62.5674 22.8331 62.5674C26.049 62.5674 29.0506 62.1386 31.7305 61.1738C34.4104 60.3162 36.4472 59.0299 38.0552 57.3147C39.6631 55.4923 40.4135 53.5628 40.4135 51.3116C40.4135 48.5245 39.1271 46.2733 36.5544 44.5582C33.9817 42.843 29.801 41.5566 24.2267 40.5919L18.8668 39.6271C12.6493 38.5551 7.93264 36.4112 4.71671 33.4096C1.60797 30.4081 0 26.549 0 21.7251C0 17.7588 1.07198 14.3284 3.32313 11.2197C5.46709 8.11098 8.68301 5.75262 12.6493 4.03746C16.6156 2.3223 21.1179 1.46472 26.1562 1.46472H27.7642C34.0889 1.67912 39.8775 3.07268 45.2374 5.64542L44.9158 14.8644C38.9128 11.3269 32.8025 9.50455 26.3706 9.50455C23.1547 9.50455 20.3676 9.93334 17.7948 10.8981C15.2221 11.7557 13.1853 13.1493 11.6846 14.7572C10.0766 16.5796 9.32619 18.6164 9.32619 20.8675C9.32619 23.6546 10.5054 25.9058 12.8637 27.6209C15.2221 29.3361 19.0812 30.6225 24.4411 31.5873L29.1578 32.3376C36.1256 33.5168 41.2711 35.5536 44.7014 38.5551C48.1317 41.5566 49.8469 45.4158 49.8469 50.2397C49.8469 54.206 48.7749 57.6363 46.5238 60.745C44.2726 63.8538 41.0567 66.2121 36.9832 67.9273C32.9097 69.6424 28.3002 70.5 23.1547 70.5H21.7611C18.2236 70.3928 14.6861 69.8568 11.1486 68.892C7.61104 67.9273 4.28791 66.6409 1.39357 65.0329L2.03677 55.5995Z" fill="#353238"/>
<path d="M219.541 61.7099H257.382L254.058 69.857H210.751V2.42963H256.738L253.415 10.5767H219.541V31.909H248.484L245.161 40.056H219.541V61.7099Z" fill="#353238"/>
<path d="M265.314 55.5995C266.815 56.8859 268.53 58.0651 270.781 59.1371C272.925 60.209 275.284 60.9594 277.856 61.6026C280.858 62.2458 283.538 62.5674 286.111 62.5674C289.326 62.5674 292.328 62.1386 295.008 61.1738C297.688 60.3162 299.725 59.0299 301.333 57.3147C302.941 55.4923 303.691 53.5628 303.691 51.3116C303.691 48.5245 302.405 46.2733 299.832 44.5582C297.259 42.843 293.078 41.5566 287.504 40.5919L282.144 39.6271C275.927 38.5551 271.21 36.4112 267.994 33.4096C264.885 30.4081 263.277 26.549 263.277 21.7251C263.277 17.7588 264.349 14.3284 266.601 11.2197C268.745 8.11098 271.96 5.75262 275.927 4.03746C279.893 2.3223 284.395 1.46472 289.434 1.46472H291.042C297.366 1.67912 303.155 3.07268 308.515 5.64542L308.193 14.8644C302.19 11.3269 296.08 9.50455 289.648 9.50455C286.432 9.50455 283.645 9.93334 281.072 10.8981C278.5 11.7557 276.463 13.1493 274.962 14.7572C273.354 16.5796 272.604 18.6164 272.604 20.8675C272.604 23.6546 273.783 25.9058 276.141 27.6209C278.5 29.3361 282.359 30.6225 287.719 31.5873L292.435 32.3376C299.403 33.5168 304.549 35.5536 307.979 38.5551C311.409 41.5566 313.124 45.4158 313.124 50.2397C313.124 54.206 312.052 57.6363 309.801 60.745C307.55 63.8538 304.334 66.2121 300.261 67.9273C296.187 69.6424 291.578 70.5 286.432 70.5H285.039C281.501 70.3928 277.964 69.8568 274.426 68.892C270.888 67.9273 267.565 66.6409 264.671 65.0329L265.314 55.5995Z" fill="#353238"/>
<path d="M324.916 5.96704L333.599 2.64392V70.0712H324.916V5.96704Z" fill="#353238"/>
<path d="M465.667 6.18152L474.457 2.8584V69.9641H466.095L425.253 17.0085V69.9641H416.463V2.5368H424.824L465.667 55.4924V6.18152Z" fill="#353238"/>
<path d="M395.881 17.9732C393.523 15.5076 390.843 13.6853 387.734 12.3989C384.625 11.1125 381.302 10.4693 377.872 10.4693C373.155 10.4693 368.867 11.5413 365.008 13.7925C361.149 16.0436 358.04 19.1524 355.789 23.2259C353.538 27.1922 352.466 31.5873 352.466 36.5184C352.466 41.3423 353.538 45.6302 355.575 49.5965C357.611 53.4556 360.613 56.5643 364.365 58.8155C368.224 61.0666 372.405 62.1386 376.907 62.1386C383.446 62.1386 388.592 60.4234 392.558 56.9931C396.417 53.5628 398.775 48.7389 399.418 42.307H373.369L377.336 38.0191C379.373 35.8752 382.16 34.5888 385.054 34.5888H408.53V35.9824C408.53 42.4142 407.244 48.0957 404.671 53.2412C402.098 58.3867 398.454 62.353 393.737 65.3545C389.02 68.3561 383.339 69.8568 376.8 69.8568C370.797 69.8568 365.33 68.4633 360.291 65.7833C355.253 62.9962 351.18 59.2443 348.178 54.4204C345.069 49.3821 343.461 43.379 343.461 36.5184C343.461 30.1937 344.962 24.405 347.856 19.2596C350.751 14.1141 354.931 9.93335 360.291 7.03901C365.651 4.03748 371.44 2.64392 377.872 2.64392C382.696 2.64392 387.198 3.50149 391.379 5.10945C395.345 6.71742 398.775 8.96857 401.777 11.8629L395.881 17.9732Z" fill="#353238"/>
<path d="M111.7 69.9641L78.683 33.7313L108.806 2.00076H102.481C99.4794 2.00076 96.585 3.28713 94.5483 5.43108L67.9633 34.0529V0.5L59.2803 3.82312V69.9641H67.9633V44.8798L72.7872 39.9487L96.6922 66.4266C98.729 68.6777 101.516 69.8569 104.518 69.8569H111.7V69.9641Z" fill="#353238"/>
<path d="M144.931 49.275V10.6839H164.87C171.409 10.6839 176.662 12.2918 180.628 15.2933L186.524 8.86149C185.345 8.0039 184.166 7.25352 182.879 6.50314C177.841 3.8232 171.838 2.42963 164.87 2.42963H136.141V64.2827L141.394 58.494C143.645 56.0285 144.931 52.7053 144.931 49.275Z" fill="#0086A8"/>
<path d="M192.527 15.1862L186.202 22.154C188.025 25.9059 188.989 30.6226 188.989 36.0897C188.989 44.3439 186.846 50.5614 182.665 54.9565C178.484 59.3516 172.481 61.6027 164.763 61.6027H155.544C152.221 61.6027 149.005 62.9963 146.754 65.4618L142.787 69.7498H164.656C171.623 69.7498 177.627 68.3562 182.772 65.569C187.81 62.7819 191.562 58.9228 194.242 53.7773C196.922 48.739 198.208 42.7359 198.208 35.9825C198.208 29.1218 196.922 23.226 194.242 18.1877C193.813 17.2229 193.17 16.1509 192.527 15.1862Z" fill="#353238"/>
</svg>
